<svg width="1440" height="743" viewBox="0 0 1440 743" fill="none" xmlns="http://www.w3.org/2000/svg">
<rect width="1440" height="743" fill="#D9D9D9"/>
<path d="M829.045 320.084C872.682 320.084 908.447 359.469 908.447 407.54C908.447 426.168 903.063 443.479 893.947 457.709L838.732 563.141C831 574.3 825.858 572.183 819.426 562.556L758.528 448.078C757.299 445.613 756.335 442.999 755.492 440.326C751.628 429.923 749.641 418.785 749.643 407.54C749.643 359.469 785.396 320.084 829.045 320.084ZM829.045 361.064C805.542 361.064 786.848 381.658 786.848 407.544C786.848 433.431 805.542 454.017 829.045 454.017C852.544 454.017 871.242 433.426 871.242 407.544C871.242 381.658 852.544 361.064 829.045 361.064Z" fill="#537B7D"/>
<path d="M576.659 186.435C602.113 186.435 622.977 209.41 622.977 237.456C622.977 248.319 619.839 258.418 614.519 266.716L582.308 328.22C577.797 334.727 574.799 333.491 571.048 327.877L535.525 261.095C534.807 259.662 534.243 258.138 533.755 256.576C531.5 250.509 530.34 244.014 530.341 237.456C530.341 209.406 551.197 186.435 576.659 186.435ZM576.659 210.342C562.949 210.342 552.044 222.353 552.044 237.456C552.044 252.554 562.949 264.561 576.659 264.561C590.365 264.561 601.274 252.554 601.274 237.456C601.274 222.353 590.365 210.342 576.659 210.342Z" fill="#537B7D"/>
<path fill-rule="evenodd" clip-rule="evenodd" d="M574.924 342.687C583.42 342.896 591.938 343.293 600.472 343.99L599.156 367.095C590.959 366.439 582.748 366.017 574.53 365.829L574.924 342.687ZM620.202 346.112C633.322 347.912 646.556 350.477 659.638 354.599L654.712 376.989C642.824 373.247 630.505 370.829 617.994 369.112L620.202 346.112ZM679.228 362.35C683.148 364.262 686.943 366.471 690.586 368.962L690.601 368.983L690.624 368.991C695.823 372.608 701.302 377.198 705.775 383.868C709.015 388.7 711.666 394.81 712.286 402.036L693.021 404.395C692.878 402.7 692.091 400.461 690.677 398.356H690.669V398.348C688.39 394.94 684.971 391.845 680.907 389.013L680.892 389.005C677.994 387.03 674.978 385.277 671.863 383.759L679.228 362.35ZM689.146 414.703L701.635 432.391C698.674 435.381 695.57 437.678 692.571 439.599L692.534 439.62L692.496 439.645C682.544 445.898 672.282 449.427 662.769 452.776L657.302 430.566C666.811 427.216 675.776 423.983 683.459 419.164C685.66 417.752 687.588 416.278 689.146 414.703ZM638.725 436.814L644.064 459.062L641.538 459.931L638.438 461.025C628.176 464.713 618.345 468.651 609.558 474.102L600.642 453.553C611.267 446.958 622.297 442.648 632.925 438.831L632.955 438.822L636.139 437.699L638.725 436.814ZM582.512 468.973L596.211 485.345C592.974 489.216 590.551 493.873 589.371 498.685L589.364 498.71L589.356 498.747C587.949 504.365 587.946 510.972 589.046 517.646L570.05 522.123C568.5 512.701 568.25 502.356 570.799 492.144C573.018 483.114 577.253 475.271 582.512 468.973ZM595.678 531.596C597.771 534.038 600.085 536.238 602.582 538.161H602.59C609.396 543.448 617.29 547.433 625.677 550.858L619.423 572.759C610.25 569.013 600.832 564.419 592.029 557.578L592.007 557.557L591.995 557.548C588.38 554.752 585.036 551.552 582.017 547.997L595.678 531.596ZM643.471 557.026C655.619 560.635 668.036 563.383 680.604 565.713L677.64 588.597C664.705 586.195 651.717 583.326 638.808 579.492L643.471 557.026ZM699.513 568.871C712.165 570.78 724.884 572.337 737.642 573.666L735.97 596.728C723.016 595.383 710.04 593.801 697.082 591.842L699.513 568.871ZM756.815 575.482C769.599 576.602 782.413 577.512 795.238 578.281L794.271 601.402C781.32 600.629 768.359 599.706 755.401 598.57L756.815 575.482ZM814.511 579.325C822.197 579.722 829.903 580.047 837.628 580.348L836.993 603.49C829.22 603.195 821.448 602.852 813.679 602.463L814.511 579.325Z" fill="#537B7D"/>
<path d="M1185.31 360C1210.15 360 1230.52 380.916 1230.52 406.448C1230.52 416.337 1227.45 425.531 1222.26 433.086L1190.83 489.077C1186.42 495.001 1183.5 493.875 1179.84 488.765L1145.17 427.968C1144.47 426.664 1143.92 425.276 1143.44 423.854C1141.24 418.331 1140.11 412.418 1140.11 406.448C1140.11 380.912 1160.46 360 1185.31 360ZM1185.31 381.764C1171.93 381.764 1161.29 392.699 1161.29 406.448C1161.29 420.192 1171.93 431.124 1185.31 431.124C1198.69 431.124 1209.33 420.192 1209.33 406.448C1209.33 392.699 1198.69 381.764 1185.31 381.764Z" fill="#537B7D"/>
<path fill-rule="evenodd" clip-rule="evenodd" d="M1183.62 502.248C1191.91 502.438 1200.22 502.799 1208.55 503.434L1207.27 524.468C1199.27 523.871 1191.25 523.486 1183.24 523.316L1183.62 502.248ZM1227.81 505.365C1240.61 507.004 1253.53 509.339 1266.29 513.091L1261.49 533.475C1249.88 530.068 1237.86 527.867 1225.65 526.304L1227.81 505.365ZM1285.41 520.148C1289.24 521.888 1292.94 523.899 1296.5 526.167L1296.51 526.186L1296.53 526.194C1301.61 529.486 1306.96 533.665 1311.32 539.737C1314.48 544.136 1317.07 549.699 1317.67 556.277L1298.87 558.425C1298.73 556.881 1297.97 554.843 1296.59 552.927H1296.58V552.919C1294.35 549.817 1291.02 546.999 1287.05 544.421L1287.04 544.414C1284.21 542.616 1281.26 541.02 1278.22 539.638L1285.41 520.148ZM1295.09 567.809L1307.28 583.911C1304.39 586.633 1301.36 588.725 1298.43 590.474L1298.4 590.493L1298.36 590.515C1288.65 596.207 1278.63 599.42 1269.35 602.47L1264.01 582.249C1273.29 579.2 1282.04 576.257 1289.54 571.869C1291.69 570.584 1293.57 569.242 1295.09 567.809ZM1245.88 587.938L1251.1 608.192L1248.63 608.983L1245.6 609.979C1235.59 613.336 1226 616.922 1217.42 621.884L1208.72 603.177C1219.09 597.173 1229.85 593.249 1240.22 589.774L1240.25 589.766L1243.36 588.744L1245.88 587.938ZM1191.02 617.214L1204.39 632.119C1201.24 635.644 1198.87 639.883 1197.72 644.263L1197.71 644.286L1197.7 644.32C1196.33 649.434 1196.33 655.449 1197.4 661.525L1178.86 665.601C1177.35 657.023 1177.11 647.605 1179.59 638.309C1181.76 630.089 1185.89 622.948 1191.02 617.214ZM1203.87 674.224C1205.92 676.448 1208.17 678.45 1210.61 680.202H1210.62C1217.26 685.015 1224.97 688.642 1233.15 691.76L1227.05 711.699C1218.1 708.288 1208.9 704.106 1200.31 697.878L1200.29 697.859L1200.28 697.851C1196.75 695.306 1193.49 692.392 1190.54 689.156L1203.87 674.224ZM1250.52 697.376C1262.37 700.661 1274.49 703.163 1286.76 705.285L1283.86 726.117C1271.24 723.931 1258.56 721.318 1245.97 717.828L1250.52 697.376ZM1305.21 708.159C1317.56 709.897 1329.97 711.315 1342.42 712.524L1340.79 733.52C1328.15 732.295 1315.48 730.854 1302.84 729.071L1305.21 708.159ZM1361.13 714.178C1373.61 715.197 1386.11 716.026 1398.63 716.725L1397.69 737.774C1385.05 737.071 1372.4 736.231 1359.75 735.196L1361.13 714.178ZM1417.44 717.676C1424.94 718.037 1432.46 718.334 1440 718.607L1439.38 739.675C1431.79 739.407 1424.21 739.095 1416.63 738.74L1417.44 717.676Z" fill="#537B7D"/>
<path d="M293.042 105.548C285.878 105.548 279.099 106.939 272.703 109.089L234.968 36H190.708V54.9677H223.199L234.456 76.7174L203.5 145.128L180.859 92.271C184.312 91.0065 187.383 87.5923 187.383 83.4194C187.383 78.2348 183.161 73.9355 177.917 73.9355H152.333C146.961 73.9355 142.612 78.2348 142.612 83.4194C142.612 88.6039 146.961 92.9032 152.333 92.9032H160.136L188.917 159.29H176.893C172.288 128.942 145.938 105.548 113.958 105.548C78.6533 105.548 50 133.874 50 168.774C50 203.675 78.6533 232 113.958 232C145.938 232 172.288 208.606 176.893 178.258H209.896L245.585 98.3407L255.69 117.688C247.47 123.503 240.77 131.17 236.143 140.053C231.517 148.937 229.096 158.782 229.083 168.774C229.083 203.675 257.737 232 293.042 232C328.347 232 357 203.675 357 168.774C357 133.874 328.347 105.548 293.042 105.548ZM113.958 213.032C89.2704 213.032 69.1875 193.179 69.1875 168.774C69.1875 144.369 89.2704 124.516 113.958 124.516C135.32 124.516 153.229 139.437 157.578 159.29H101.167V178.258H157.578C155.406 188.101 149.896 196.915 141.963 203.239C134.03 209.564 124.15 213.019 113.958 213.032ZM293.042 213.032C268.354 213.032 248.271 193.179 248.271 168.774C248.271 155.117 254.667 143.105 264.516 135.012L287.541 179.523L304.426 170.418L281.529 126.16C285.239 125.275 289.076 124.516 293.042 124.516C317.73 124.516 337.813 144.369 337.813 168.774C337.813 193.179 317.73 213.032 293.042 213.032Z" fill="#537B7D"/>
<path d="M1219.03 36C1182.02 36 1151.69 67.0661 1151.69 104.985C1151.69 119.677 1156.26 133.333 1163.99 144.557L1210.82 227.72C1217.38 236.523 1221.74 234.853 1227.19 227.259L1278.84 136.96C1279.88 135.016 1280.7 132.954 1281.41 130.845C1284.69 122.639 1286.38 113.855 1286.37 104.985C1286.37 67.0661 1256.05 36 1219.03 36ZM1219.03 68.3246C1238.97 68.3246 1254.82 84.5692 1254.82 104.988C1254.82 125.406 1238.97 141.644 1219.03 141.644C1199.1 141.644 1183.25 125.403 1183.25 104.988C1183.25 84.5692 1199.1 68.3246 1219.03 68.3246Z" fill="#537B7D"/>
<path fill-rule="evenodd" clip-rule="evenodd" d="M1434.55 53.8292C1427.35 53.9939 1420.12 54.3069 1412.88 54.8571L1414 73.0816C1420.95 72.5644 1427.92 72.2315 1434.89 72.0834L1434.55 53.8292ZM1396.15 56.5306C1385.03 57.9505 1373.8 59.9733 1362.71 63.2248L1366.88 80.886C1376.97 77.9343 1387.41 76.0268 1398.03 74.6728L1396.15 56.5306ZM1346.09 69.3392C1342.77 70.8468 1339.55 72.5893 1336.46 74.5542L1336.45 74.5707L1336.43 74.5773C1332.02 77.4302 1327.37 81.0508 1323.58 86.3119C1320.83 90.1235 1318.58 94.9432 1318.06 100.643L1334.39 102.504C1334.52 101.166 1335.18 99.4005 1336.38 97.7401H1336.39V97.7336C1338.32 95.0453 1341.22 92.6042 1344.67 90.3706L1344.68 90.364C1347.14 88.806 1349.7 87.4235 1352.34 86.2262L1346.09 69.3392ZM1337.68 110.634L1327.09 124.586C1329.6 126.945 1332.23 128.757 1334.78 130.272L1334.81 130.289L1334.84 130.308C1343.28 135.24 1351.98 138.024 1360.05 140.666L1364.69 123.146C1356.62 120.504 1349.02 117.955 1342.5 114.153C1340.64 113.039 1339 111.876 1337.68 110.634ZM1380.44 128.075L1375.91 145.624L1378.06 146.309L1380.69 147.172C1389.39 150.081 1397.73 153.188 1405.18 157.487L1412.74 141.279C1403.73 136.077 1394.38 132.677 1385.36 129.666L1385.34 129.659L1382.64 128.773L1380.44 128.075ZM1428.12 153.442L1416.5 166.356C1419.24 169.41 1421.3 173.083 1422.3 176.878L1422.31 176.898L1422.31 176.927C1423.51 181.358 1423.51 186.57 1422.58 191.835L1438.69 195.366C1440 187.934 1440.21 179.774 1438.05 171.719C1436.17 164.596 1432.58 158.41 1428.12 153.442ZM1416.95 202.838C1415.18 204.764 1413.21 206.499 1411.1 208.017H1411.09C1405.32 212.187 1398.62 215.33 1391.51 218.031L1396.81 235.307C1404.59 232.352 1412.58 228.728 1420.05 223.332L1420.06 223.316L1420.07 223.309C1423.14 221.104 1425.98 218.579 1428.54 215.775L1416.95 202.838ZM1376.42 222.897C1366.12 225.744 1355.58 227.911 1344.93 229.75L1347.44 247.8C1358.41 245.905 1369.42 243.642 1380.37 240.618L1376.42 222.897ZM1328.89 232.24C1318.16 233.746 1307.37 234.975 1296.55 236.022L1297.97 254.214C1308.96 253.153 1319.96 251.904 1330.95 250.359L1328.89 232.24ZM1280.29 237.455C1269.45 238.338 1258.58 239.056 1247.7 239.662L1248.53 257.9C1259.51 257.291 1270.5 256.563 1281.49 255.667L1280.29 237.455ZM1231.36 240.486C1224.84 240.799 1218.31 241.056 1211.75 241.293L1212.29 259.547C1218.89 259.315 1225.48 259.044 1232.07 258.737L1231.36 240.486Z" fill="#537B7D"/>
<path d="M196.138 540C229.037 540 256 567.703 256 601.516C256 614.618 251.941 626.795 245.068 636.804L203.441 710.963C197.612 718.813 193.735 717.323 188.886 710.552L142.975 630.029C142.049 628.296 141.322 626.457 140.686 624.577C137.773 617.259 136.275 609.425 136.277 601.516C136.277 567.703 163.231 540 196.138 540ZM196.138 568.825C178.419 568.825 164.326 583.311 164.326 601.519C164.326 619.727 178.419 634.207 196.138 634.207C213.855 634.207 227.951 619.724 227.951 601.519C227.951 583.311 213.855 568.825 196.138 568.825Z" fill="#537B7D"/>
<path fill-rule="evenodd" clip-rule="evenodd" d="M4.55546 555.899C10.9607 556.046 17.383 556.325 23.8167 556.815L22.8247 573.067C16.6446 572.606 10.454 572.309 4.25899 572.177L4.55546 555.899ZM38.6909 558.308C48.5823 559.574 58.5593 561.378 68.4222 564.277L64.7079 580.026C55.7458 577.394 46.4587 575.693 37.0262 574.486L38.6909 558.308ZM83.191 569.73C86.1462 571.074 89.0074 572.628 91.754 574.38L91.7654 574.395L91.7825 574.401C95.7021 576.945 99.8325 580.173 103.205 584.865C105.648 588.264 107.646 592.562 108.113 597.644L93.5898 599.304C93.4815 598.111 92.8885 596.536 91.8224 595.056H91.8167V595.05C90.0979 592.653 87.521 590.476 84.4566 588.484L84.4452 588.478C82.2609 587.089 79.9865 585.856 77.6381 584.788L83.191 569.73ZM90.668 606.554L100.083 618.995C97.8514 621.099 95.5111 622.714 93.2506 624.066L93.2221 624.08L93.1936 624.098C85.6909 628.496 77.9545 630.978 70.7825 633.334L66.6606 617.711C73.8297 615.355 80.5884 613.082 86.3807 609.691C88.0397 608.698 89.4935 607.661 90.668 606.554ZM52.6558 622.106L56.6808 637.755L54.7766 638.366L52.4391 639.136C44.7027 641.73 37.2913 644.5 30.6666 648.334L23.945 633.881C31.955 629.242 40.2701 626.21 48.283 623.525L48.3058 623.519L50.706 622.729L52.6558 622.106ZM10.2765 644.727L20.6041 656.242C18.164 658.966 16.3368 662.241 15.4474 665.625L15.4417 665.643L15.436 665.67C14.3756 669.621 14.3728 674.268 15.2023 678.963L0.881085 682.112C-0.287644 675.484 -0.475786 668.208 1.44549 661.025C3.11877 654.674 6.31141 649.157 10.2765 644.727ZM20.2022 688.775C21.7803 690.492 23.5244 692.04 25.4073 693.393H25.413C30.544 697.112 36.496 699.914 42.8185 702.323L38.1037 717.729C31.1882 715.094 24.0875 711.862 17.4514 707.05L17.4343 707.035L17.4257 707.03C14.7004 705.063 12.1795 702.811 9.90312 700.311L20.2022 688.775ZM56.2332 706.662C65.3921 709.201 74.7533 711.134 84.2286 712.773L81.9937 728.869C72.242 727.179 62.4503 725.161 52.7185 722.464L56.2332 706.662ZM98.4842 714.994C108.022 716.336 117.611 717.432 127.229 718.366L125.969 734.588C116.203 733.642 106.42 732.529 96.6513 731.151L98.4842 714.994ZM141.684 719.644C151.322 720.431 160.983 721.072 170.652 721.612L169.922 737.876C160.159 737.332 150.387 736.683 140.618 735.884L141.684 719.644ZM185.181 722.347C190.976 722.626 196.786 722.855 202.609 723.067L202.13 739.344C196.27 739.137 190.411 738.896 184.554 738.622L185.181 722.347Z" fill="#537B7D"/>
</svg>
