<svg width="44" height="44" viewBox="0 0 44 44" fill="none" xmlns="http://www.w3.org/2000/svg">
<path d="M31.2583 37.18C29.4617 38.9217 27.5 38.6467 25.6117 37.8217C23.6133 36.9783 21.78 36.9417 19.6717 37.8217C17.0317 38.9583 15.6383 38.6283 14.0617 37.18C5.11501 27.9583 6.43501 13.915 16.5917 13.4017C19.0667 13.53 20.79 14.7583 22.2383 14.8683C24.4017 14.4283 26.4733 13.1633 28.7833 13.3283C31.5517 13.5483 33.6417 14.6483 35.0167 16.6283C29.2967 20.0567 30.6533 27.5917 35.8967 29.7C34.8517 32.45 33.495 35.1817 31.24 37.1983L31.2583 37.18ZM22.055 13.2917C21.78 9.20333 25.0983 5.83 28.9117 5.5C29.4433 10.23 24.6217 13.75 22.055 13.2917Z" fill="black"/>
</svg>
