<svg width="34" height="34" viewBox="0 0 34 34" fill="none" xmlns="http://www.w3.org/2000/svg">
<path d="M31.1922 15.1613L25.6402 12.0191L20.6607 16.9675L25.6799 21.9556L31.1922 18.8361C31.5175 18.6521 31.7881 18.3851 31.9765 18.0623C32.1648 17.7394 32.264 17.3724 32.264 16.9987C32.264 16.6249 32.1648 16.2579 31.9765 15.9351C31.7881 15.6123 31.5175 15.3452 31.1922 15.1613ZM1.89408 32.6911C1.78895 32.4359 1.73504 32.1625 1.73541 31.8864V2.11234C1.73541 1.80492 1.79916 1.51876 1.91108 1.26234L17.714 16.9689L1.89408 32.6911ZM19.1873 18.4323L23.8028 23.0195L4.8875 33.7238C4.48206 33.9568 4.00986 34.0462 3.54733 33.9774L19.1873 18.4323ZM19.1873 15.5041L3.604 0.0156746C4.02616 -0.0353279 4.471 0.0383415 4.8875 0.274925L23.7632 10.9566L19.1873 15.5041Z" fill="black"/>
</svg>
