<svg width="200" height="120" viewBox="0 0 200 120" fill="none" xmlns="http://www.w3.org/2000/svg">
<path d="M139.667 104.625C152.063 104.625 162.599 100.286 171.276 91.6094C179.953 82.9323 184.292 72.3958 184.292 60C184.292 47.6042 179.953 37.0677 171.276 28.3906C162.599 19.7135 152.063 15.375 139.667 15.375C127.271 15.375 116.734 19.7135 108.057 28.3906C99.3802 37.0677 95.0417 47.6042 95.0417 60C95.0417 72.3958 99.3802 82.9323 108.057 91.6094C116.734 100.286 127.271 104.625 139.667 104.625ZM139.667 119.5C124.461 119.5 111.28 114.5 100.124 104.501C88.9677 94.5017 82.4806 82.1472 80.6625 67.4375H0.833374V52.5625H80.6625C82.4806 37.8528 88.9677 25.4983 100.124 15.499C111.28 5.49965 124.461 0.5 139.667 0.5C156.194 0.5 170.243 6.28472 181.813 17.8542C193.382 29.4236 199.167 43.4722 199.167 60C199.167 76.5278 193.382 90.5764 181.813 102.146C170.243 113.715 156.194 119.5 139.667 119.5Z" fill="#EECE1A"/>
</svg>
