<svg width="180" height="200" viewBox="0 0 180 200" fill="none" xmlns="http://www.w3.org/2000/svg">
<path d="M179.25 67.7709L119.254 67.7709C115.453 67.7709 112.147 66.6553 109.338 64.424C106.528 62.1928 104.875 59.1765 104.379 55.3751C103.057 43.9709 98.2226 34.5088 89.876 26.9886C81.5295 19.4685 71.6542 15.7084 60.25 15.7084C47.8542 15.7084 37.3177 20.047 28.6406 28.724C19.9635 37.4011 15.625 47.9376 15.625 60.3334C15.625 71.7376 19.4264 81.6543 27.0292 90.0834C34.6319 98.5126 44.1354 103.388 55.5396 104.711C58.8451 105.206 61.6962 106.983 64.0927 110.041C66.4892 113.098 67.6875 116.28 67.6875 119.586V170.904L90 148.592L100.412 159.004L60.25 199.167L20.0875 159.004L30.5 148.592L52.8125 170.904L52.8125 119.338C37.7722 117.52 25.3351 110.95 15.501 99.6282C5.66701 88.3067 0.75 75.2084 0.75 60.3334C0.75 43.8056 6.53472 29.757 18.1042 18.1876C29.6736 6.61815 43.7222 0.83342 60.25 0.83342C75.125 0.83342 88.2233 5.75044 99.5448 15.5845C110.866 25.4185 117.436 37.8557 119.254 52.8959L179.25 52.8959V67.7709Z" fill="#EECE1A"/>
</svg>
