<svg width="34" height="34" viewBox="0 0 34 34" fill="none" xmlns="http://www.w3.org/2000/svg">
<path d="M31.1922 15.1611L25.6402 12.019L20.6607 16.9674L25.6799 21.9555L31.1922 18.836C31.5175 18.652 31.7881 18.385 31.9765 18.0621C32.1648 17.7393 32.264 17.3723 32.264 16.9986C32.264 16.6248 32.1648 16.2578 31.9765 15.935C31.7881 15.6121 31.5175 15.3451 31.1922 15.1611ZM1.89408 32.691C1.78895 32.4357 1.73504 32.1623 1.73541 31.8863V2.11222C1.73541 1.8048 1.79916 1.51863 1.91108 1.26222L17.714 16.9688L1.89408 32.691ZM19.1873 18.4322L23.8028 23.0194L4.8875 33.7237C4.48206 33.9567 4.00986 34.0461 3.54733 33.9773L19.1873 18.4322ZM19.1873 15.504L3.604 0.0155525C4.02616 -0.03545 4.471 0.0382195 4.8875 0.274803L23.7632 10.9565L19.1873 15.504Z" fill="white"/>
</svg>
